<svg width="162" height="49" viewBox="0 0 162 49" fill="none" xmlns="http://www.w3.org/2000/svg">
<path d="M99.1439 36.0779C88.7189 40.5269 77.3315 42.7109 66.9867 42.7109C51.6699 42.7109 36.8342 38.5046 24.8053 31.4671C23.7628 30.82 22.9609 31.9525 23.843 32.7614C34.9898 42.8727 49.6651 48.9395 65.9442 48.9395C77.5721 48.9395 91.1247 45.2185 100.427 38.3428C102.031 37.0486 100.748 35.3499 99.1439 36.0779Z" fill="#FF9900"/>
<path d="M93.2909 32.1144C92.489 32.6806 92.5692 33.4895 93.5315 33.4086C96.4986 33.085 103.235 32.2761 104.438 33.8131C105.641 35.35 103.074 41.7403 101.952 44.5715C101.631 45.4613 102.353 45.7848 103.074 45.1377C108.046 40.9314 109.41 32.0335 108.367 30.8201C107.405 29.445 98.5836 28.3125 93.2909 32.1144Z" fill="#FF9900"/>
<path d="M111.574 21.4356C108.687 19.8178 105.399 19.3325 102.271 19.4134L110.772 7.19893C111.574 6.06647 111.974 5.41935 111.974 4.85311V1.69839C111.974 1.13216 111.574 0.808594 111.012 0.808594H94.6529C94.1718 0.808594 93.7708 1.21305 93.7708 1.69839V5.33846C93.7708 5.90469 94.1717 6.22825 94.7331 6.22825H103.234L93.45 20.3841C92.8887 21.2739 92.8887 22.3254 92.8887 22.8917V26.6126C92.8887 27.1789 93.45 27.7451 94.0114 27.4215C99.5447 24.4286 106.201 24.7521 111.253 27.4215C111.894 27.7451 112.456 27.098 112.456 26.6126V22.649C112.375 22.3254 112.215 21.7592 111.574 21.4356Z" fill="#221F1F"/>
<path d="M29.2162 28.3932H34.1882C34.7495 28.3932 35.1505 27.9887 35.1505 27.5034V13.8329C35.1505 10.84 34.9901 6.71456 38.5988 6.71456C42.1272 6.71456 41.6461 10.9209 41.6461 13.8329V27.5034C41.6461 27.9887 42.047 28.3932 42.5282 28.3932H47.5001C48.0615 28.3932 48.4625 27.9887 48.4625 27.5034V13.8329C48.4625 12.3769 48.3823 10.1928 48.9436 8.8986C49.4248 7.60435 50.7079 6.79545 51.9107 6.79545C53.3542 6.79545 54.4769 7.28079 54.7977 8.97949C55.0383 10.0311 54.9581 12.7004 54.9581 13.8329V27.5034C54.9581 27.9887 55.359 28.3932 55.8402 28.3932H60.8121C61.3735 28.3932 61.7744 27.9887 61.7744 27.5034V11.2444C61.7744 8.49415 62.0952 5.33942 60.4914 3.15538C59.1281 1.21401 56.8025 0.324219 54.7175 0.324219C51.7504 0.324219 49.0238 1.86114 47.8209 5.09675C46.4576 1.86114 44.4528 0.324219 41.4055 0.324219C38.3582 0.324219 36.1128 1.86114 34.8297 5.09675H34.7495V1.69936C34.7495 1.21401 34.3485 0.890451 33.8674 0.809561H29.2162C28.6549 0.809561 28.2539 1.21401 28.2539 1.69936V27.5034C28.3341 27.9887 28.7351 28.3123 29.2162 28.3932Z" fill="#221F1F"/>
<path d="M126.008 0.324219C118.791 0.324219 114.861 6.55278 114.861 14.5609C114.861 22.4882 118.791 28.8785 126.008 28.8785C132.985 28.8785 137.395 22.65 137.395 14.8036C137.315 6.71456 133.386 0.324219 126.008 0.324219ZM126.008 23.6206C122.079 23.6206 122.159 16.9067 122.159 13.752C122.159 10.5973 122.399 5.58209 126.088 5.58209C127.692 5.58209 128.815 6.31011 129.376 8.08969C130.018 10.112 130.098 12.7813 130.098 14.8845C130.018 18.201 129.857 23.6206 126.008 23.6206Z" fill="#221F1F"/>
<path d="M154.398 0.324219C150.95 0.324219 149.025 2.02292 147.662 5.5012H147.501V1.61846C147.421 1.21401 147.02 0.890451 146.619 0.890451H142.048C141.567 0.890451 141.166 1.2949 141.086 1.69936V27.4225C141.086 27.9078 141.487 28.3123 141.968 28.3123H146.94C147.501 28.3123 147.902 27.9078 147.902 27.4225V13.5902C147.902 11.8915 147.983 10.2737 148.704 8.73682C149.266 7.52346 150.388 6.71456 151.591 6.71456C155.039 6.71456 154.719 10.84 154.719 13.6711V27.6652C154.799 28.0696 155.12 28.4741 155.601 28.4741H160.573C161.054 28.4741 161.455 28.1505 161.535 27.6652V11.4871C161.535 8.97949 161.535 5.5012 160.252 3.47894C158.728 1.13312 156.563 0.324219 154.398 0.324219Z" fill="#221F1F"/>
<path d="M80.7005 11.0014C77.8136 11.325 74.0445 11.5677 71.3982 12.781C68.2707 14.1561 66.1055 16.9064 66.1055 20.9509C66.1055 26.1279 69.3934 28.7973 73.5634 28.7973C77.0919 28.7973 79.0165 27.9884 81.743 25.1572C82.6252 26.4515 82.9459 27.0986 84.63 28.4737C85.0309 28.6355 85.5121 28.6355 85.8329 28.3929C86.7952 27.5031 88.6396 25.8853 89.6019 25.0763C90.0029 24.7528 89.9227 24.1866 89.6019 23.7821C88.7198 22.4879 87.7575 21.5172 87.7575 19.1713V11.325C87.7575 8.00848 87.9981 5.01553 85.5923 2.66971C83.6677 0.809233 80.5401 0.162109 78.1344 0.162109C73.403 0.162109 68.1103 1.9417 66.9876 7.8467C66.9074 8.49382 67.3084 8.81738 67.7093 8.89827L72.5209 9.38361C73.002 9.38361 73.3228 8.89827 73.403 8.49382C73.804 6.47156 75.488 5.50087 77.4126 5.50087C78.4551 5.50087 79.5778 5.90533 80.2194 6.79512C80.9411 7.8467 80.8609 9.22183 80.8609 10.4352L80.7005 11.0014ZM79.8184 21.4363C79.0165 22.8114 77.7334 23.7012 76.3701 23.7012C74.4455 23.7012 73.3228 22.2452 73.3228 20.0611C73.3228 15.774 77.0919 15.0459 80.7005 15.0459V16.0975C80.7005 18.0389 80.7807 19.6567 79.8184 21.4363Z" fill="#221F1F"/>
<path d="M24.4047 23.62C23.5225 22.3257 22.5602 21.3551 22.5602 19.0092V11.1629C22.5602 7.84637 22.8008 4.85342 20.395 2.5076C18.4704 0.647123 15.3429 0 12.9371 0C8.20574 0 2.91302 1.77959 1.79032 7.68459C1.71013 8.33171 2.11109 8.65527 2.51206 8.73616L7.32362 9.2215C7.80477 9.2215 8.12554 8.73616 8.20574 8.33171C8.6067 6.30945 10.2907 5.33877 12.2154 5.33877C13.2579 5.33877 14.3806 5.74322 15.0221 6.63301C15.7438 7.68459 15.5835 9.05972 15.5835 10.2731V10.9202C12.6965 11.2438 8.92747 11.4864 6.28111 12.6998C3.1536 14.0749 0.908203 16.8252 0.908203 20.9506C0.908203 26.1276 4.1961 28.797 8.36612 28.797C11.8946 28.797 13.8192 27.9881 16.5458 25.1569C17.4279 26.4512 17.7487 27.0983 19.4327 28.4734C19.8337 28.6352 20.3148 28.6352 20.6356 28.3925C21.5979 27.5027 23.4423 25.8849 24.4047 25.076C24.8056 24.6716 24.7254 24.1053 24.4047 23.62ZM14.6211 21.436C13.8192 22.8111 12.6163 23.7009 11.1729 23.7009C9.24824 23.7009 8.12554 22.2449 8.12554 20.0608C8.12554 15.7736 11.8946 15.0456 15.5033 15.0456V16.0972C15.5835 18.0386 15.6637 19.6564 14.6211 21.436Z" fill="#221F1F"/>
</svg>
