<svg width="188" height="49" viewBox="0 0 188 49" fill="none" xmlns="http://www.w3.org/2000/svg">
<path d="M27.9304 3.65636C27.9304 5.62517 26.2574 7.31272 24.3056 7.31272C22.3537 7.31272 20.6807 5.62517 20.6807 3.65636C20.6807 1.68755 22.3537 0 24.3056 0C26.2574 0 27.9304 1.68755 27.9304 3.65636ZM24.3056 10.3128C22.1679 10.3128 20.4949 12.0004 20.4949 14.1567C20.4949 16.313 22.1679 18.0005 24.3056 18.0005C26.4433 18.0005 28.1163 16.313 28.1163 14.1567C28.1163 11.9066 26.4433 10.3128 24.3056 10.3128ZM24.3056 20.5319C22.1679 20.5319 20.4019 22.3132 20.4019 24.4695C20.4019 26.6258 22.1679 28.4071 24.3056 28.4071C26.4433 28.4071 28.2092 26.6258 28.2092 24.4695C28.3022 22.4069 26.4433 20.5319 24.3056 20.5319ZM24.3056 31.0322C22.1679 31.0322 20.4949 32.7197 20.4949 34.8761C20.4949 37.0324 22.1679 38.7199 24.3056 38.7199C26.4433 38.7199 28.1163 37.0324 28.1163 34.8761C28.1163 32.8135 26.4433 31.0322 24.3056 31.0322ZM24.3056 41.6263C22.3537 41.6263 20.6807 43.3138 20.6807 45.2826C20.6807 47.2514 22.3537 48.939 24.3056 48.939C26.2574 48.939 27.9304 47.2514 27.9304 45.2826C27.9304 43.3138 26.2574 41.6263 24.3056 41.6263ZM34.3436 9.7503C32.0199 9.7503 30.0681 11.7191 30.0681 14.0629C30.0681 16.4067 32.0199 18.3756 34.3436 18.3756C36.6672 18.3756 38.619 16.4067 38.619 14.0629C38.619 11.7191 36.6672 9.7503 34.3436 9.7503ZM34.3436 20.0631C31.8341 20.0631 29.8822 22.0319 29.8822 24.5632C29.8822 27.0946 31.8341 29.0634 34.3436 29.0634C36.853 29.0634 38.8049 27.0946 38.8049 24.5632C38.8049 22.0319 36.853 20.0631 34.3436 20.0631ZM34.3436 30.4697C32.0199 30.4697 30.0681 32.4385 30.0681 34.7823C30.0681 37.1261 32.0199 39.0949 34.3436 39.0949C36.6672 39.0949 38.619 37.1261 38.619 34.7823C38.619 32.5322 36.6672 30.4697 34.3436 30.4697ZM44.7533 19.5943C42.1509 19.5943 39.8273 21.7507 39.8273 24.5632C39.8273 27.1883 41.965 29.5322 44.7533 29.5322C47.5416 29.5322 49.6794 27.3758 49.6794 24.5632C49.4935 21.7507 47.3557 19.5943 44.7533 19.5943ZM14.1746 10.7816C12.4087 10.7816 10.9216 12.2816 10.9216 14.0629C10.9216 15.8442 12.4087 17.3443 14.1746 17.3443C15.9406 17.3443 17.4277 15.8442 17.4277 14.0629C17.4277 12.2816 15.9406 10.7816 14.1746 10.7816ZM14.1746 21.0944C12.2228 21.0944 10.7357 22.5944 10.7357 24.5632C10.7357 26.5321 12.2228 28.0321 14.1746 28.0321C16.1265 28.0321 17.6136 26.5321 17.6136 24.5632C17.6136 22.5944 16.1265 21.0944 14.1746 21.0944ZM14.1746 31.501C12.4087 31.501 10.9216 33.001 10.9216 34.7823C10.9216 36.5636 12.4087 38.0637 14.1746 38.0637C15.9406 38.0637 17.4277 36.5636 17.4277 34.7823C17.4277 33.001 15.9406 31.501 14.1746 31.501ZM3.95078 21.5632C2.27778 21.5632 0.976562 22.8757 0.976562 24.5632C0.976562 26.2508 2.27778 27.5633 3.95078 27.5633C5.62378 27.5633 6.92499 26.2508 6.92499 24.5632C6.92499 22.8757 5.62378 21.5632 3.95078 21.5632Z" fill="#00B0B9"/>
<path d="M86.7639 18.0938C86.3921 18.0938 86.1133 18.4688 86.1133 18.75V44.8133C86.1133 45.1883 86.4851 45.4696 86.7639 45.4696H89.924C90.2958 45.4696 90.5746 45.0946 90.5746 44.8133V18.75C90.5746 18.375 90.2028 18.0938 89.924 18.0938H86.7639Z" fill="#002A3A"/>
<path d="M88.4371 7.125C86.7641 7.125 85.4629 8.43754 85.4629 10.1251C85.4629 11.8126 86.7641 13.1252 88.4371 13.1252C90.1101 13.1252 91.4113 11.8126 91.4113 10.1251C91.4113 8.43754 90.1101 7.125 88.4371 7.125Z" fill="#002A3A"/>
<path d="M153.033 18.0938C152.662 18.0938 152.383 18.4688 152.383 18.75V44.8133C152.383 45.1883 152.755 45.4696 153.033 45.4696H156.194C156.565 45.4696 156.844 45.0946 156.844 44.8133V18.75C156.844 18.375 156.472 18.0938 156.194 18.0938H153.033Z" fill="#002A3A"/>
<path d="M154.521 7.125C152.848 7.125 151.547 8.43754 151.547 10.1251C151.547 11.8126 152.848 13.1252 154.521 13.1252C156.194 13.1252 157.495 11.8126 157.495 10.1251C157.495 8.43754 156.194 7.125 154.521 7.125Z" fill="#002A3A"/>
<path d="M185.75 42.9395C185.936 42.752 185.936 42.5645 185.936 42.4707C185.936 42.2832 185.936 42.2832 185.936 42.2832C185.936 42.2832 185.936 42.0957 185.75 42.0957C185.75 42.0957 185.564 41.9082 185.378 41.9082C185.192 41.9082 185.192 41.9082 185.006 41.9082H184.17V44.252H184.542V43.4082H185.006L185.657 44.252H186.029L185.192 43.2207C185.564 43.3145 185.75 43.127 185.75 42.9395ZM184.635 43.127V42.2832H185.285C185.471 42.2832 185.657 42.2832 185.75 42.4707C185.936 42.4707 185.936 42.6582 185.936 42.8457C185.936 43.0332 185.936 43.2207 185.75 43.2207C185.564 43.2207 185.378 43.4082 185.285 43.4082H184.635V43.127Z" fill="#002A3A"/>
<path d="M185.099 40.9707C183.983 40.9707 182.961 42.002 182.961 43.127C182.961 44.2521 183.983 45.2833 185.099 45.2833C186.214 45.2833 187.236 44.2521 187.236 43.127C187.236 42.002 186.214 40.9707 185.099 40.9707ZM185.099 45.0958C183.983 45.0958 183.147 44.2521 183.147 43.127C183.147 42.002 183.983 41.1582 185.099 41.1582C186.214 41.1582 187.05 42.002 187.05 43.127C187.05 44.2521 186.121 45.0958 185.099 45.0958Z" fill="#002A3A"/>
<path d="M112.417 22.4067C112.789 22.4067 113.068 22.0317 113.068 21.7504V18.5628C113.068 18.1878 112.696 17.9066 112.417 17.9066H105.818V7.96877C105.818 7.59376 105.446 7.3125 105.167 7.3125H102.007C101.636 7.3125 101.357 7.68751 101.357 7.96877V17.9066H98.1037C97.732 17.9066 97.4531 18.2816 97.4531 18.5628V21.7504C97.4531 22.1255 97.8249 22.4067 98.1037 22.4067H101.357V37.5009C101.357 42.1886 104.517 45.0949 108.885 45.0949H112.138C112.51 45.0949 112.789 44.7199 112.789 44.4386V41.251C112.789 40.876 112.417 40.5948 112.138 40.5948H109.35C107.212 40.5948 105.725 39.0947 105.725 36.7509V22.2192H112.324L112.417 22.4067Z" fill="#002A3A"/>
<path d="M177.851 22.4067C178.223 22.4067 178.501 22.0317 178.501 21.7504V18.5628C178.501 18.1878 178.13 17.9066 177.851 17.9066H171.252V7.96877C171.252 7.59376 170.88 7.3125 170.601 7.3125H167.441C167.069 7.3125 166.79 7.68751 166.79 7.96877V17.9066H163.537C163.166 17.9066 162.887 18.2816 162.887 18.5628V21.7504C162.887 22.1255 163.258 22.4067 163.537 22.4067H166.79V37.5009C166.79 42.1886 169.95 45.0949 174.319 45.0949H177.572C177.944 45.0949 178.223 44.7199 178.223 44.4386V41.251C178.223 40.876 177.851 40.5948 177.572 40.5948H174.784C172.646 40.5948 171.159 39.0947 171.159 36.7509V22.2192H177.944L177.851 22.4067Z" fill="#002A3A"/>
<path d="M67.2463 22.4068V44.6263C67.2463 45.0013 67.618 45.2825 67.8969 45.2825H71.057C71.4288 45.2825 71.7076 44.9075 71.7076 44.6263V22.4068H78.9572C79.329 22.4068 79.6078 22.0318 79.6078 21.7506V18.563C79.6078 18.1879 79.2361 17.9067 78.9572 17.9067H71.7076V12.094C71.7076 9.75019 73.3806 8.15639 75.3324 8.15639H78.9572C79.329 8.15639 79.6078 7.78138 79.6078 7.50012V4.31252C79.6078 3.93751 79.2361 3.65625 78.9572 3.65625H75.5183C70.8711 3.65625 67.3392 7.50012 67.3392 11.9065V17.9067H64.0862C63.7144 17.9067 63.4355 18.2817 63.4355 18.563V21.7506C63.4355 22.1256 63.8073 22.4068 64.0862 22.4068H67.2463Z" fill="#002A3A"/>
<path d="M142.531 21.188C140.021 18.563 136.582 17.0629 132.957 17.0629C129.518 17.0629 126.08 18.563 123.942 20.7193V4.12502C123.942 3.75001 123.57 3.46875 123.291 3.46875H120.131C119.759 3.46875 119.48 3.84376 119.48 4.12502V31.5009C119.48 41.6262 126.265 46.1263 132.772 46.1263C139.371 46.1263 146.063 41.6262 146.063 31.5009C146.341 27.4695 145.04 23.9069 142.531 21.188ZM132.957 41.9074C126.358 41.9074 123.942 36.5635 123.942 31.5946C123.942 25.5007 127.567 21.4693 132.957 21.4693C138.348 21.4693 141.973 25.5944 141.973 31.5946C141.88 36.6573 139.556 41.9074 132.957 41.9074Z" fill="#002A3A"/>
</svg>
