<svg width="147" height="49" viewBox="0 0 147 49" fill="none" xmlns="http://www.w3.org/2000/svg">
<path d="M36.4821 17.7972H19.41V22.8751H31.521C30.9373 30.0135 25.0277 33.1044 19.41 33.1044C12.2601 33.1044 6.05874 27.4378 6.05874 19.4898C6.1317 11.7626 12.0413 5.87521 19.483 5.87521C25.2466 5.87521 28.6027 9.55483 28.6027 9.55483L32.1776 5.87521C32.1776 5.87521 27.6542 0.797324 19.337 0.797324C8.68522 0.723732 0.586914 9.70201 0.586914 19.4162C0.586914 28.9097 8.24747 38.1823 19.5559 38.1823C29.4782 38.1823 36.7739 31.3382 36.7739 21.1824C36.7739 19.0483 36.4821 17.7972 36.4821 17.7972Z" fill="#4885ED"/>
<path d="M50.4169 14.1172C43.413 14.1172 38.3789 19.6366 38.3789 26.0392C38.3789 32.5889 43.2671 38.1819 50.4899 38.1819C57.0561 38.1819 62.382 33.104 62.382 26.1863C62.382 18.1648 56.1806 14.1172 50.4169 14.1172ZM50.4899 18.8271C53.9189 18.8271 57.202 21.6236 57.202 26.1128C57.202 30.5283 53.9918 33.3984 50.4899 33.3984C46.6961 33.3984 43.7048 30.3075 43.7048 26.0392C43.6319 21.918 46.6231 18.8271 50.4899 18.8271Z" fill="#DB3236"/>
<path d="M76.5361 14.1172C69.5321 14.1172 64.498 19.6366 64.498 26.0392C64.498 32.5889 69.3862 38.1819 76.609 38.1819C83.1752 38.1819 88.5011 33.104 88.5011 26.1863C88.5011 18.1648 82.2997 14.1172 76.5361 14.1172ZM76.609 18.8271C80.038 18.8271 83.3211 21.6236 83.3211 26.1128C83.3211 30.5283 80.111 33.3984 76.609 33.3984C72.8152 33.3984 69.8239 30.3075 69.8239 26.0392C69.751 21.918 72.7423 18.8271 76.609 18.8271Z" fill="#F4C20D"/>
<path d="M102.144 14.1172C95.7235 14.1172 90.6895 19.7838 90.6895 26.1864C90.6895 33.3984 96.5261 38.2555 102.071 38.2555C105.5 38.2555 107.251 36.8573 108.637 35.3118V37.6668C108.637 41.788 106.156 44.2901 102.363 44.2901C98.7148 44.2901 96.8908 41.5672 96.2342 40.0217L91.5649 41.9351C93.17 45.394 96.4531 49 102.29 49C108.637 49 113.525 44.9524 113.525 36.4157V14.8531H108.491V16.9137C107.032 15.2211 104.916 14.1172 102.144 14.1172ZM102.582 18.8271C105.719 18.8271 108.929 21.55 108.929 26.1864C108.929 30.8963 105.719 33.472 102.509 33.472C99.0796 33.472 95.8694 30.6755 95.8694 26.1864C95.9424 21.55 99.2255 18.8271 102.582 18.8271Z" fill="#4885ED"/>
<path d="M135.851 14.0449C129.796 14.0449 124.688 18.902 124.688 26.0405C124.688 33.6205 130.379 38.1097 136.435 38.1097C141.469 38.1097 144.606 35.3131 146.43 32.811L142.271 30.0145C141.177 31.7071 139.426 33.3261 136.435 33.3261C133.079 33.3261 131.547 31.4863 130.598 29.6465L146.576 22.9496L145.773 20.9626C144.168 17.283 140.593 14.0449 135.851 14.0449ZM135.997 18.6812C138.186 18.6812 139.718 19.8587 140.447 21.257L129.723 25.7461C129.285 22.2873 132.568 18.6812 135.997 18.6812Z" fill="#DB3236"/>
<path d="M117.027 37.4462H122.28V1.97461H117.027V37.4462Z" fill="#3CBA54"/>
</svg>
