<svg width="147" height="49" viewBox="0 0 147 49" fill="none" xmlns="http://www.w3.org/2000/svg">
<g clip-path="url(#clip0_6130_3261)">
<path d="M20.5172 41.7997C18.3285 42.1676 16.0668 42.3148 13.7321 42.6092L6.65522 21.7825V43.5659C4.46649 43.7867 2.42368 44.081 0.380859 44.449V4.48828H6.21748L14.2428 27.0812V4.48828H20.4442L20.5172 41.7997ZM32.6282 19.1332C35.0358 19.1332 38.6837 18.986 40.8724 18.986V25.2414C38.1 25.2414 34.9628 25.2414 32.6282 25.3885V34.5876C36.2761 34.3668 39.851 34.0725 43.5718 33.9253V39.8863L26.4997 41.2845V4.48828H43.5718V10.7436H32.6282V19.1332ZM66.5535 10.7436H60.1332V39.3711C58.0175 39.3711 55.9746 39.3711 53.9318 39.4447V10.7436H47.5115V4.48828H66.4806C66.5535 4.48828 66.5535 10.7436 66.5535 10.7436ZM76.5487 18.6916H85.0118V24.947H76.5487V39.0767H70.4932V4.48828H87.7113V10.7436H76.5487V18.6916ZM97.7794 33.6309C101.281 33.7045 104.856 33.9989 108.285 34.1461V40.3278C102.741 39.9599 97.2687 39.5919 91.651 39.5183V4.48828H97.8524V33.6309H97.7794ZM113.465 40.6958C115.435 40.843 117.551 40.9166 119.521 41.1373V4.48828H113.465V40.6958ZM146.588 4.48828L138.782 23.4751L146.588 44.3754C144.253 44.081 141.992 43.6395 139.657 43.2715L135.207 31.7175L130.683 42.3148C128.422 41.9469 126.306 41.7997 124.044 41.5053L131.997 23.2544L124.847 4.56187H131.486L135.572 15.012L139.876 4.56187L146.588 4.48828Z" fill="#D81F26"/>
</g>
<defs>
<clipPath id="clip0_6130_3261">
<rect width="146.207" height="48.939" fill="white" transform="translate(0.380859)"/>
</clipPath>
</defs>
</svg>
