<svg width="147" height="50" viewBox="0 0 147 50" fill="none" xmlns="http://www.w3.org/2000/svg">
<path d="M118.838 17.0293C117.671 15.7047 115.701 14.9688 113.002 14.9688H104.977C104.393 14.9688 103.955 15.3367 103.882 15.9255L100.599 36.7521C100.526 37.1937 100.818 37.5616 101.256 37.5616H105.414C105.779 37.5616 106.144 37.2673 106.217 36.8993L107.165 31.0119C107.238 30.4968 107.749 30.0552 108.26 30.0552H110.813C116.139 30.0552 119.203 27.4795 120.006 22.328C120.225 20.0466 119.86 18.2804 118.838 17.0293ZM113.95 22.5488C113.513 25.4925 111.324 25.4925 109.135 25.4925H107.895L108.77 20.0466C108.843 19.7523 109.135 19.4579 109.427 19.4579H110.011C111.47 19.4579 112.856 19.4579 113.513 20.2674C113.95 20.7826 114.096 21.5185 113.95 22.5488Z" fill="#179BD7"/>
<path d="M137.078 22.476H133.212C132.847 22.476 132.628 22.6968 132.555 23.0647L132.409 24.1686L132.117 23.8007C131.315 22.5496 129.418 22.1816 127.594 22.1816C123.362 22.1816 119.714 25.4197 118.985 29.9824C118.62 32.2638 119.131 34.4716 120.444 35.9434C121.611 37.3417 123.289 37.9304 125.332 37.9304C128.761 37.9304 130.658 35.7227 130.658 35.7227L130.512 36.8265C130.439 37.2681 130.731 37.6361 131.169 37.6361H134.671C135.254 37.6361 135.692 37.1945 135.765 36.6794L137.881 23.3591C137.808 22.844 137.443 22.476 137.078 22.476ZM131.679 30.056C131.315 32.2638 129.564 33.7357 127.302 33.7357C126.208 33.7357 125.259 33.3677 124.748 32.7054C124.165 32.043 123.946 31.0863 124.165 29.9824C124.53 27.7747 126.281 26.2292 128.469 26.2292C129.564 26.2292 130.439 26.5972 131.023 27.2595C131.606 27.9954 131.825 28.9521 131.679 30.056Z" fill="#179BD7"/>
<path d="M145.978 14.9688H142.258C141.893 14.9688 141.674 15.1895 141.601 15.5575L138.318 36.7521C138.245 37.1937 138.537 37.5616 138.974 37.5616H142.33C142.914 37.5616 143.352 37.1937 143.425 36.6049L146.708 15.7783C146.708 15.3367 146.416 14.9688 145.978 14.9688Z" fill="#179BD7"/>
<path d="M61.4212 17.0293C60.2539 15.7047 58.2111 14.9688 55.5846 14.9688H47.4863C46.9026 14.9688 46.4649 15.3367 46.3919 15.9255L43.1088 36.7521C43.0359 37.1937 43.3277 37.5616 43.7654 37.5616H47.6322C48.2159 37.5616 48.6536 37.1937 48.7266 36.6049L49.6021 31.0119C49.675 30.4968 50.1857 30.0552 50.6964 30.0552H53.3229C58.6488 30.0552 61.713 27.4795 62.5156 22.328C62.8074 20.0466 62.4426 18.2804 61.4212 17.0293ZM56.4601 22.5488C56.0223 25.4925 53.8336 25.4925 51.6449 25.4925H50.4046L51.2801 20.0466C51.353 19.7523 51.6449 19.4579 51.9367 19.4579H52.5933C54.0525 19.4579 55.4387 19.4579 56.0953 20.2674C56.5331 20.7826 56.679 21.5185 56.4601 22.5488Z" fill="#253B80"/>
<path d="M79.5871 22.476H75.7203C75.3555 22.476 75.1367 22.6968 75.0637 23.0647L74.9178 24.1686L74.626 23.8007C73.8234 22.5496 71.9265 22.1816 70.1026 22.1816C65.871 22.1816 62.2231 25.4197 61.4936 29.9824C61.1288 32.2638 61.6395 34.4716 62.9527 35.9434C64.12 37.3417 65.7981 37.9304 67.8409 37.9304C71.2699 37.9304 73.1668 35.7227 73.1668 35.7227L73.0209 36.8265C72.9479 37.2681 73.2398 37.6361 73.6775 37.6361H77.1795C77.7631 37.6361 78.2009 37.1945 78.2738 36.6794L80.3167 23.2119C80.3167 22.844 80.0248 22.476 79.5871 22.476ZM74.2612 30.056C73.8964 32.2638 72.1454 33.7357 69.8837 33.7357C68.7893 33.7357 67.8409 33.3677 67.3302 32.7054C66.7465 32.043 66.5277 31.0863 66.7465 29.9824C67.1113 27.7747 68.8623 26.2292 71.051 26.2292C72.1454 26.2292 73.0209 26.5972 73.6046 27.2595C74.1882 27.9954 74.4071 28.9521 74.2612 30.056Z" fill="#253B80"/>
<path d="M100.161 22.4766H96.2942C95.9294 22.4766 95.5646 22.6973 95.3457 22.9917L90.0198 30.9397L87.7581 23.2861C87.6122 22.8445 87.1745 22.4766 86.6638 22.4766H82.87C82.4322 22.4766 82.0674 22.9181 82.2133 23.3597L86.4449 36.0176L82.4322 41.7578C82.1404 42.1993 82.4322 42.8617 83.0159 42.8617H86.8826C87.2474 42.8617 87.6122 42.7145 87.8311 42.3465L100.745 23.5804C101.036 23.0653 100.672 22.4766 100.161 22.4766Z" fill="#253B80"/>
<path d="M29.8305 17.2511C29.3928 16.7359 28.8821 16.368 28.2255 16C28.2255 16.2208 28.1525 16.4416 28.0795 16.6623C28.0066 16.8831 28.0066 17.1039 27.9336 17.2511C26.6204 23.5064 22.6807 26.1558 17.5736 26.7445C17.2088 26.8181 16.917 26.8181 16.5522 26.8181C16.1874 26.8181 15.7497 26.8181 15.3849 26.8181H12.1748C11.3722 26.8181 10.7156 27.4068 10.6426 28.1428L9.18349 37.5626L8.96462 38.7401L8.52687 41.7574C8.45392 42.2725 8.8187 42.7141 9.32941 42.7141H15.0931C15.7497 42.7141 16.3334 42.1989 16.4793 41.5366L16.5522 41.2422L17.6466 34.3245L17.7195 33.9566C17.7925 33.2942 18.3762 32.7791 19.1057 32.7791H19.9812C25.3801 32.7791 29.7576 30.5713 30.9979 23.948C31.5086 21.1515 31.2897 18.8701 29.8305 17.2511Z" fill="#179BD7"/>
<path d="M10.5689 28.2168L10.6419 27.8489L12.4658 16.0741C12.5388 15.6325 12.8306 15.1909 13.2684 15.0438C13.4143 14.9702 13.6331 14.8966 13.852 14.8966H22.534C23.5554 14.8966 24.5038 14.9702 25.3793 15.1174C25.5982 15.1909 25.89 15.1909 26.1089 15.2645C26.3278 15.3381 26.5467 15.4117 26.7655 15.4117C26.8385 15.4117 26.9114 15.4853 26.9844 15.4853H27.0574C27.0574 15.4853 27.0574 15.4853 27.1303 15.4853C27.5681 15.6325 27.9329 15.7797 28.2976 16.0005C28.7354 13.204 28.2976 11.2905 26.7655 9.59792C25.0875 7.68452 22.1692 6.875 18.3754 6.875H7.28582C6.48328 6.875 5.82666 7.46374 5.75371 8.19966L1.15737 37.6367C1.08441 38.2254 1.52216 38.7405 2.10582 38.7405H8.89089L9.10976 37.5631L10.5689 28.2168Z" fill="#253B80"/>
<path d="M28.2981 16.0004C27.9333 15.7796 27.5685 15.6324 27.1307 15.4852C27.1307 15.4852 27.1307 15.4852 27.0578 15.4852H26.9848C26.9119 15.4852 26.8389 15.4116 26.766 15.4116C26.5471 15.338 26.3282 15.2644 26.1093 15.2644C25.8905 15.1909 25.5986 15.1909 25.3798 15.1173C24.5043 14.9701 23.5558 14.8965 22.5344 14.8965H13.8524C13.6336 14.8965 13.4147 14.9701 13.2688 15.0437C12.904 15.2644 12.5392 15.6324 12.4662 16.074L10.6423 27.8488L10.5693 28.2167C10.7153 27.4072 11.3719 26.8921 12.1014 26.8921H15.3845C15.7493 26.8921 16.1871 26.8921 16.5519 26.8921C16.9167 26.8921 17.2814 26.8185 17.5733 26.8185C22.6803 26.1561 26.62 23.5068 28.0062 17.325C28.0792 17.1043 28.0792 16.9571 28.1522 16.7363C28.2251 16.4419 28.2251 16.2211 28.2981 16.0004C28.2981 16.074 28.2981 16.074 28.2981 16.0004Z" fill="#222D65"/>
</svg>
