<svg width="156" height="49" viewBox="0 0 156 49" fill="none" xmlns="http://www.w3.org/2000/svg">
<path d="M82.0391 12.2741C82.0391 14.0051 80.6351 15.5 78.841 15.5C77.047 15.5 75.643 14.0837 75.643 12.2741C75.643 10.4644 76.969 9.04821 78.841 9.04821C80.7131 9.20557 82.0391 10.6218 82.0391 12.2741ZM69.0128 18.7259C69.0128 19.0406 69.0128 19.5127 69.0128 19.5127C69.0128 19.5127 67.5308 17.5457 64.3328 17.5457C59.0287 17.5457 54.8946 21.637 54.8946 27.2233C54.8946 32.8096 58.9507 36.901 64.3328 36.901C67.6088 36.901 69.0128 34.8553 69.0128 34.8553V35.7207C69.0128 36.1142 69.3249 36.4289 69.7149 36.4289H73.6149V18.0177C73.6149 18.0177 70.0269 18.0177 69.7149 18.0177C69.3249 18.0177 69.0128 18.4111 69.0128 18.7259ZM69.0128 30.5279C68.3108 31.6294 66.8288 32.5735 65.1128 32.5735C61.9927 32.5735 59.6527 30.6065 59.6527 27.302C59.6527 23.9974 62.0707 22.0304 65.1128 22.0304C66.8288 22.0304 68.3888 22.9746 69.0128 24.0761V30.5279ZM76.579 18.0177H81.2591V36.4289H76.579V18.0177ZM146.234 17.5457C143.036 17.5457 141.554 19.5127 141.554 19.5127V9.20557H136.874V36.5075C136.874 36.5075 140.462 36.5075 140.774 36.5075C141.164 36.5075 141.476 36.1928 141.476 35.7994V34.9339C141.476 34.9339 142.958 36.9796 146.156 36.9796C151.46 36.9796 155.594 32.8883 155.594 27.302C155.672 21.637 151.538 17.5457 146.234 17.5457ZM145.454 32.4949C143.66 32.4949 142.256 31.5507 141.554 30.4492V23.8401C142.256 22.8959 143.816 21.7944 145.454 21.7944C148.574 21.7944 150.914 23.7614 150.914 27.0659C150.914 30.3705 148.574 32.4949 145.454 32.4949ZM134.456 25.571V36.5862H129.776V26.1218C129.776 23.0533 128.84 21.8731 126.188 21.8731C124.784 21.8731 123.302 22.5812 122.366 23.6827V36.5075H117.686V18.0177H121.352C121.742 18.0177 122.054 18.3325 122.054 18.7259V19.5127C123.38 18.0964 125.252 17.5457 127.046 17.5457C129.074 17.5457 130.79 18.0964 132.116 19.2766C133.832 20.6929 134.456 22.4238 134.456 25.571ZM106.376 17.5457C103.177 17.5457 101.695 19.5127 101.695 19.5127V9.20557H97.0154V36.5075C97.0154 36.5075 100.603 36.5075 100.915 36.5075C101.305 36.5075 101.617 36.1928 101.617 35.7994V34.9339C101.617 34.9339 103.099 36.9796 106.298 36.9796C111.602 36.9796 115.736 32.8883 115.736 27.302C115.814 21.637 111.68 17.5457 106.376 17.5457ZM105.596 32.4949C103.801 32.4949 102.397 31.5507 101.695 30.4492V23.8401C102.397 22.8959 103.957 21.7944 105.596 21.7944C108.716 21.7944 111.056 23.7614 111.056 27.0659C111.056 30.3705 108.716 32.4949 105.596 32.4949ZM92.9593 17.5457C94.3633 17.5457 95.0653 17.7817 95.0653 17.7817V22.1091C95.0653 22.1091 91.1653 20.7715 88.7472 23.604V36.5075H84.0671V18.0177C84.0671 18.0177 87.6552 18.0177 87.9672 18.0177C88.3572 18.0177 88.6692 18.3325 88.6692 18.7259V19.5127C89.6052 18.4898 91.5553 17.5457 92.9593 17.5457ZM44.5204 34.8553C44.2864 34.3045 44.0524 33.5964 43.8184 33.1243C43.4284 32.2588 43.0384 31.3933 42.7264 30.6065L42.6484 30.5279C39.2943 23.2106 35.7062 15.736 31.8842 8.34009L31.7282 8.02537C31.3382 7.31725 30.9482 6.53045 30.5582 5.74364C30.0901 4.87816 29.6221 3.934 28.8421 3.06852C27.2821 1.10152 25.0201 0 22.68 0C20.262 0 18.0779 1.10152 16.4399 2.91116C15.6599 3.85532 15.1139 4.7208 14.6459 5.66496C14.2559 6.45177 13.8658 7.23857 13.4758 7.94669L13.3198 8.26141C9.57577 15.5787 5.9097 23.0533 2.55564 30.4492L2.47764 30.5279C2.16563 31.3147 1.77563 32.1801 1.38562 33.0456C1.15162 33.5964 0.917612 34.1471 0.683608 34.7766C0.0595967 36.5862 -0.174408 38.3172 0.137598 40.0482C0.683608 43.7461 3.10165 46.8146 6.45571 48.1522C7.70374 48.703 9.02976 48.939 10.3558 48.939C10.7458 48.939 11.2138 48.8603 11.6038 48.8603C13.2418 48.703 14.8799 48.1522 16.4399 47.208C18.4679 46.1065 20.34 44.4542 22.446 42.0938C24.552 44.4542 26.5021 46.0278 28.4521 47.208C30.0901 48.1522 31.7282 48.703 33.2882 48.8603C33.6782 48.939 34.1462 48.939 34.5362 48.939C35.8622 48.939 37.2663 48.703 38.4363 48.1522C41.8684 46.8146 44.2084 43.6674 44.7544 40.0482C45.3004 38.3172 45.1444 36.6649 44.5204 34.8553ZM22.602 37.373C19.95 34.0685 18.3119 30.9213 17.6879 28.2461C17.4539 27.1446 17.3759 26.1218 17.5319 25.2563C17.6099 24.4695 17.9219 23.7614 18.3119 23.2106C19.2479 21.8731 20.808 21.0863 22.602 21.0863C24.396 21.0863 26.0341 21.8731 26.8921 23.2106C27.2821 23.7614 27.5941 24.4695 27.6721 25.2563C27.8281 26.1218 27.7501 27.1446 27.5161 28.2461C26.8921 30.8426 25.1761 33.9898 22.602 37.373ZM41.9464 39.6548C41.6344 42.1725 39.9183 44.3756 37.5003 45.3984C36.3303 45.8705 35.0822 46.0278 33.8342 45.8705C32.5862 45.7131 31.4162 45.3197 30.1681 44.6116C28.4521 43.6674 26.6581 42.0938 24.63 39.8908C27.8281 35.9568 29.7781 32.2588 30.4801 29.0329C30.7922 27.538 30.8702 26.1218 30.7142 24.8629C30.5581 23.604 30.0901 22.5025 29.3881 21.5583C27.9061 19.3553 25.3321 18.0964 22.524 18.0964C19.716 18.0964 17.1419 19.434 15.6599 21.5583C14.9579 22.5025 14.5679 23.6827 14.3339 24.8629C14.1779 26.1218 14.1779 27.538 14.5679 29.0329C15.2699 32.2588 17.2979 35.9568 20.418 39.8908C18.3899 42.1725 16.5959 43.6674 14.8799 44.6116C13.6318 45.3197 12.3838 45.7131 11.2138 45.8705C9.88778 46.0278 8.63975 45.7918 7.54773 45.3984C5.12969 44.4542 3.49166 42.1725 3.10165 39.6548C2.94565 38.3959 3.02365 37.2157 3.56966 35.7994C3.72566 35.3273 3.95967 34.8553 4.19367 34.2258C4.50568 33.439 4.89568 32.5735 5.28569 31.7867L5.36369 31.7081C8.71775 24.3908 12.3058 16.9162 16.0499 9.67765L16.2059 9.36293C16.5959 8.65481 16.9859 7.86801 17.3759 7.08121C17.7659 6.2944 18.2339 5.58628 18.7019 4.95684C19.716 3.77664 21.12 3.1472 22.602 3.1472C24.084 3.1472 25.4881 3.77664 26.5021 4.95684C27.0481 5.58628 27.4381 6.2944 27.8281 7.08121C28.2181 7.78933 28.6081 8.57613 28.9981 9.36293L29.1541 9.67765C32.8202 16.9949 36.4083 24.4695 39.7623 31.7081V31.7867C40.1523 32.5735 40.4643 33.439 40.8543 34.2258C41.0883 34.7766 41.3223 35.3273 41.4784 35.7994C42.0244 37.137 42.1804 38.3959 41.9464 39.6548Z" fill="#FF5A5F"/>
</svg>
